# This file uses centimeters as units for non-parametric coordinates.

v 0.090393 0.023884 -1.018505
v 0.001898 0.030631 -1.004500
v -0.088182 0.023881 -1.018434
v -0.179391 0.007813 -1.016759
v -0.267961 -0.011305 -0.995665
v -0.350368 -0.026014 -0.956427
v -0.425272 -0.030577 -0.904755
v -0.494328 -0.023214 -0.848228
v -0.561344 -0.006797 -0.793035
v -0.630118 0.012269 -0.741534
v -0.702024 0.026548 -0.691712
v -0.774628 0.030469 -0.638677
v -0.842154 0.022502 -0.577357
v -0.897710 0.005755 -0.505039
v -0.936300 -0.013239 -0.422565
v -0.957168 -0.027070 -0.333690
v -0.964310 -0.030343 -0.243088
v -0.964804 -0.021781 -0.154113
v -0.965669 -0.004725 -0.067507
v -0.970675 0.014173 0.018327
v -0.978599 0.027540 0.105713
v -0.983733 0.030162 0.195696
v -0.978434 0.021016 0.286800
v -0.956519 0.003670 0.375289
v -0.915959 -0.015110 0.456830
v -0.859655 -0.027997 0.528707
v -0.794012 -0.029964 0.591369
v -0.726054 -0.020245 0.648379
v -0.660484 -0.002630 0.704677
v -0.598042 0.016009 0.763916
v -0.535841 0.028401 0.826189
v -0.469372 0.029712 0.887357
v -0.395087 0.019431 0.940416
v -0.312242 0.001568 0.978386
v -0.223155 -0.016909 0.997392
v -0.131854 -0.028792 0.998479
v -0.041956 -0.029444 0.987258
v 0.045053 -0.018613 0.971479
v 0.130193 -0.000522 0.957619
v 0.215853 0.017770 0.948055
v 0.303787 0.029128 0.940109
v 0.393402 0.029122 0.927390
v 0.481324 0.017754 0.902770
v 0.562597 -0.000542 0.861603
v 0.632953 -0.018629 0.803702
v 0.691001 -0.029450 0.733234
v 0.739128 -0.028785 0.656684
v 0.782536 -0.016892 0.579961
v 0.826742 0.001587 0.506045
v 0.874705 0.019446 0.434251
v 0.924986 0.029717 0.361338
v 0.971912 0.028394 0.283749
v 1.007782 0.015992 0.199782
v 1.026148 -0.002650 0.110573
v 1.024668 -0.020260 0.019437
v 1.006194 -0.029969 -0.069949
v 0.977543 -0.027989 -0.155509
v 0.946522 -0.015092 -0.237729
v 0.918556 0.003690 -0.319077
v 0.894473 0.021031 -0.402173
v 0.870419 0.030166 -0.487698
v 0.839884 0.027531 -0.573231
v 0.796833 0.014155 -0.653743
v 0.738440 -0.004744 -0.723619
v 0.666215 -0.021795 -0.779270
v 0.585076 -0.030346 -0.820993
v 0.500963 -0.027060 -0.853064
v 0.418230 -0.013221 -0.881882
v 0.338095 0.005775 -0.912946
v 0.258816 0.022515 -0.948076
v 0.177369 0.030471 -0.984234
v 0.090393 -0.025437 -0.982150
v 0.001898 -0.030641 -1.004500
v -0.084969 -0.025440 -0.982221
v -0.169087 -0.010317 -0.959145
v -0.252777 0.008828 -0.939823
v -0.338362 0.024528 -0.923938
v -0.426175 0.030658 -0.906660
v -0.513586 0.024826 -0.881022
v -0.595668 0.009308 -0.841167
v -0.667277 -0.009843 -0.784944
v -0.725527 -0.025156 -0.714700
v -0.771367 -0.030658 -0.636008
v -0.809361 -0.024202 -0.555049
v -0.845629 -0.008307 -0.475986
v -0.884857 0.010827 -0.399571
v -0.927785 0.025735 -0.323565
v -0.970439 0.030603 -0.244609
v -1.005555 0.023530 -0.160475
v -1.025621 0.007277 -0.071492
v -1.026148 -0.011817 0.019554
v -1.007663 -0.026303 0.108941
v -0.975491 -0.030530 0.194032
v -0.937412 -0.022849 0.274666
v -0.900283 -0.006257 0.353081
v -0.867183 0.012774 0.432383
v -0.836364 0.026820 0.514328
v -0.802417 0.030402 0.597648
v -0.759035 0.022122 0.677899
v -0.702004 0.005211 0.749049
v -0.631042 -0.013735 0.806111
v -0.549697 -0.027325 0.847560
v -0.463497 -0.030258 0.876253
v -0.377367 -0.021388 0.898297
v -0.293649 -0.004178 0.920288
v -0.211632 0.014661 0.946159
v -0.128739 0.027778 0.975148
v -0.042603 0.030058 1.001862
v 0.047135 0.020610 1.018505
v 0.138289 0.003120 1.018244
v 0.227131 -0.015588 0.998197
v 0.310364 -0.028218 0.960660
v 0.386943 -0.029842 0.912036
v 0.458689 -0.019826 0.859996
v 0.529274 -0.002078 0.810208
v 0.602017 0.016478 0.764146
v 0.677615 0.028605 0.718929
v 0.753044 0.029571 0.669140
v 0.822319 0.019000 0.609680
v 0.878876 0.001015 0.538231
v 0.918492 -0.017368 0.456197
v 0.941340 -0.028977 0.367796
v 0.952089 -0.029285 0.277885
v 0.957924 -0.018170 0.189722
v 0.965309 0.000030 0.103815
v 0.976997 0.018218 0.018383
v 0.990676 0.029296 -0.068917
v 0.999917 0.028945 -0.159002
v 0.996998 0.017300 -0.250261
v 0.976308 -0.001095 -0.338978
v 0.936771 -0.019065 -0.421080
v 0.882212 -0.029599 -0.494277
v 0.819552 -0.028589 -0.559400
v 0.755745 -0.016428 -0.620118
v 0.694915 0.002139 -0.681047
v 0.637002 0.019871 -0.745142
v 0.578434 0.029848 -0.811679
v 0.514385 0.028181 -0.875921
v 0.441400 0.015518 -0.930785
v 0.359105 -0.003200 -0.969799
v 0.270220 -0.020672 -0.990017
v 0.179017 -0.030081 -0.993450
vt 0.100000 0.999533
vt 0.100000 0.013991
vt 0.100000 0.027982
vt 0.100000 0.041974
vt 0.100000 0.055965
vt 0.100000 0.069957
vt 0.100000 0.083948
vt 0.100000 0.097939
vt 0.100000 0.111929
vt 0.100000 0.125921
vt 0.100000 0.139912
vt 0.100000 0.153903
vt 0.100000 0.167894
vt 0.100000 0.181886
vt 0.100000 0.195878
vt 0.100000 0.209869
vt 0.100000 0.223861
vt 0.100000 0.237851
vt 0.100000 0.251842
vt 0.100000 0.265834
vt 0.100000 0.279825
vt 0.100000 0.293820
vt 0.100000 0.307811
vt 0.100000 0.321802
vt 0.100000 0.335794
vt 0.100000 0.349785
vt 0.100000 0.363774
vt 0.100000 0.377765
vt 0.100000 0.391758
vt 0.100000 0.405749
vt 0.100000 0.419740
vt 0.100000 0.433730
vt 0.100000 0.447723
vt 0.100000 0.461714
vt 0.100000 0.475705
vt 0.100000 0.489698
vt 0.100000 0.503687
vt 0.100000 0.517680
vt 0.100000 0.531670
vt 0.100000 0.545661
vt 0.100000 0.559654
vt 0.100000 0.573643
vt 0.100000 0.587636
vt 0.100000 0.601629
vt 0.100000 0.615618
vt 0.100000 0.629610
vt 0.100000 0.643601
vt 0.100000 0.657592
vt 0.100000 0.671581
vt 0.100000 0.685572
vt 0.100000 0.699567
vt 0.100000 0.713563
vt 0.100000 0.727556
vt 0.100000 0.741549
vt 0.100000 0.755530
vt 0.100000 0.769527
vt 0.100000 0.783523
vt 0.100000 0.797508
vt 0.100000 0.811497
vt 0.100000 0.825490
vt 0.100000 0.839479
vt 0.100000 0.853472
vt 0.100000 0.867468
vt 0.100000 0.881457
vt 0.100000 0.895446
vt 0.100000 0.909435
vt 0.100000 0.923436
vt 0.100000 0.937421
vt 0.100000 0.951417
vt 0.100000 0.965406
vt 0.100000 0.978947
vt 0.121141 0.000000
vt 0.121141 0.013991
vt 0.121141 0.027982
vt 0.121141 0.041974
vt 0.121141 0.055965
vt 0.121141 0.069957
vt 0.121141 0.083948
vt 0.121141 0.097939
vt 0.121141 0.111929
vt 0.121141 0.125921
vt 0.121141 0.139912
vt 0.121141 0.153903
vt 0.121141 0.167894
vt 0.121141 0.181886
vt 0.121141 0.195878
vt 0.121141 0.209869
vt 0.121141 0.223861
vt 0.121141 0.237851
vt 0.121141 0.251842
vt 0.121141 0.265834
vt 0.121141 0.279825
vt 0.121141 0.293820
vt 0.121141 0.307811
vt 0.121141 0.321802
vt 0.121141 0.335794
vt 0.121141 0.349785
vt 0.121141 0.363774
vt 0.121141 0.377765
vt 0.121141 0.391758
vt 0.121141 0.405749
vt 0.121141 0.419740
vt 0.121141 0.433730
vt 0.121141 0.447723
vt 0.121141 0.461714
vt 0.121141 0.475705
vt 0.121141 0.489698
vt 0.121141 0.503687
vt 0.121141 0.517680
vt 0.121141 0.531670
vt 0.121141 0.545661
vt 0.121141 0.559654
vt 0.121141 0.573643
vt 0.121141 0.587636
vt 0.121141 0.601629
vt 0.121141 0.615618
vt 0.121141 0.629610
vt 0.121141 0.643601
vt 0.121141 0.657592
vt 0.121141 0.671581
vt 0.121141 0.685572
vt 0.121141 0.699567
vt 0.121141 0.713563
vt 0.121141 0.727556
vt 0.121141 0.741549
vt 0.121141 0.755530
vt 0.121141 0.769527
vt 0.121141 0.783523
vt 0.121141 0.797508
vt 0.121141 0.811497
vt 0.121141 0.825490
vt 0.121141 0.839479
vt 0.121141 0.853472
vt 0.121141 0.867468
vt 0.121141 0.881457
vt 0.121141 0.895446
vt 0.121141 0.909435
vt 0.121141 0.923436
vt 0.121141 0.937421
vt 0.121141 0.951417
vt 0.121141 0.965406
vt 0.121141 0.978947
vt 0.121141 0.999533
vt 0.100000 0.000000
vn -0.082942 0.276678 0.957377
vn 0.000017 0.312289 0.949987
vn -0.000014 0.312289 0.949987
vn -0.085793 0.274176 0.957845
vn 0.062434 0.591781 0.803678
vn 0.062631 0.594635 0.801553
vn 0.038666 0.954531 0.295595
vn 0.038192 0.955620 0.292118
vn -0.098880 0.945051 -0.311610
vn -0.099993 0.943790 -0.315057
vn -0.293037 0.566942 -0.769874
vn -0.294225 0.563674 -0.771818
vn -0.427258 -0.032408 -0.903549
vn -0.427687 -0.036412 -0.903193
vn -0.389648 -0.619149 -0.681783
vn -0.388768 -0.622248 -0.679461
vn -0.142112 -0.964270 -0.223580
vn -0.140086 -0.965274 -0.220505
vn 0.243909 -0.933118 0.264194
vn 0.246260 -0.931797 0.266667
vn 0.607940 -0.537944 0.583974
vn 0.609574 -0.534960 0.585010
vn 0.771363 0.067015 0.632857
vn 0.771475 0.070502 0.632342
vn 0.625831 0.645800 0.437352
vn 0.624137 0.648511 0.435759
vn 0.195183 0.972746 0.125175
vn 0.192104 0.973595 0.123326
vn -0.362253 0.920354 -0.147384
vn -0.365566 0.918840 -0.148642
vn -0.816131 0.508950 -0.273681
vn -0.818182 0.505527 -0.273900
vn -0.965136 -0.101075 -0.241448
vn -0.964865 -0.105058 -0.240828
vn -0.730358 -0.671691 -0.124130
vn -0.727802 -0.674606 -0.123334
vn -0.196200 -0.980181 -0.027391
vn -0.192492 -0.980926 -0.027044
vn 0.422259 -0.906198 -0.022432
vn 0.425547 -0.904651 -0.022713
vn 0.871839 -0.478705 -0.103630
vn 0.873462 -0.475605 -0.104230
vn 0.971647 0.135460 -0.193787
vn 0.971085 0.138924 -0.194150
vn 0.690703 0.696761 -0.193527
vn 0.688221 0.699317 -0.193151
vn 0.157820 0.986357 -0.046836
vn 0.154390 0.986959 -0.045569
vn -0.399443 0.891297 0.214555
vn -0.402412 0.889537 0.216308
vn -0.757195 0.448547 0.474828
vn -0.758453 0.444986 0.476169
vn -0.791230 -0.169265 0.587626
vn -0.790364 -0.173208 0.587642
vn -0.523345 -0.721052 0.454086
vn -0.520991 -0.723768 0.452469
vn -0.099171 -0.991449 0.084813
vn -0.096562 -0.991933 0.082120
vn 0.288219 -0.874986 -0.389010
vn 0.289983 -0.873224 -0.391650
vn 0.489497 -0.417201 -0.765726
vn 0.489929 -0.414002 -0.767184
vn 0.460815 0.203261 -0.863906
vn 0.460072 0.206688 -0.863489
vn 0.269059 0.744425 -0.611096
vn 0.267729 0.746812 -0.608764
vn 0.043015 0.995298 -0.086789
vn 0.041841 0.995648 -0.083273
vn -0.100643 0.858020 0.503659
vn -0.101110 0.856019 0.506961
vn -0.116800 0.386017 0.915067
vn -0.116511 0.382337 0.916648
vn -0.046705 -0.236652 0.970471
vn -0.046141 -0.240535 0.969543
vn 0.017046 -0.766996 0.641425
vn 0.017250 -0.769503 0.638410
vn -0.006316 -0.998021 0.062563
vn -0.006784 -0.998245 0.058837
vn -0.130954 -0.839631 -0.527134
vn -0.131876 -0.837664 -0.530027
vn -0.289777 -0.353723 -0.889331
vn -0.290575 -0.350437 -0.890371
vn -0.369506 0.270103 -0.889106
vn -0.369556 0.273475 -0.888054
vn -0.277279 0.788565 -0.548891
vn -0.276215 0.790771 -0.546248
vn -0.002527 0.999527 -0.030653
vn -0.000503 0.999622 -0.027508
vn 0.361201 0.820680 0.442740
vn 0.363403 0.818446 0.445067
vn 0.650148 0.321659 0.688363
vn 0.651391 0.317876 0.688945
vn 0.706971 -0.302919 0.639087
vn 0.706407 -0.306723 0.637895
vn 0.463337 -0.809306 0.361030
vn 0.460992 -0.811592 0.358895
vn -0.014130 -0.999865 0.008377
vn -0.017319 -0.999829 0.006414
vn -0.541097 -0.800300 -0.258328
vn -0.543794 -0.798137 -0.259355
vn -0.891981 -0.288570 -0.347991
vn -0.893080 -0.285212 -0.347939
vn -0.901817 0.335663 -0.272132
vn -0.900811 0.338967 -0.271371
vn -0.545690 0.828972 -0.122591
vn -0.542812 0.830985 -0.121734
vn 0.043060 0.999024 -0.009834
vn 0.046793 0.998860 -0.009442
vn 0.626456 0.779452 0.002705
vn 0.629502 0.776995 0.002442
vn 0.964373 0.255778 -0.067541
vn 0.965349 0.251911 -0.068127
vn 0.919646 -0.367752 -0.137879
vn 0.918115 -0.371457 -0.138145
vn 0.517583 -0.847782 -0.115643
vn 0.514319 -0.849837 -0.115117
vn -0.067497 -0.996973 0.038587
vn -0.070997 -0.996681 0.039834
vn -0.591827 -0.757179 0.276442
vn -0.594168 -0.754833 0.277834
vn -0.850045 -0.222052 0.477615
vn -0.850493 -0.218637 0.478392
vn -0.761333 0.399634 0.510553
vn -0.759925 0.402855 0.510119
vn -0.395653 0.865455 0.307321
vn -0.393073 0.867265 0.305524
vn 0.068775 0.993792 -0.087456
vn 0.071417 0.993367 -0.090120
vn 0.433251 0.734532 -0.522260
vn 0.434846 0.731863 -0.524677
vn 0.568177 0.188681 -0.800984
vn 0.568179 0.184750 -0.801898
vn 0.462588 -0.430841 -0.774847
vn 0.461301 -0.434431 -0.773610
vn 0.213230 -0.882241 -0.419742
vn 0.211547 -0.884058 -0.416761
vn -0.036716 -0.989359 0.140788
vn -0.037919 -0.988814 0.144255
vn -0.174810 -0.710473 0.681666
vn -0.175147 -0.707955 0.684195
vn -0.174084 -0.127224 0.976478
vn -0.173718 -0.123401 0.977033
s 1
f 1/144/1 2/2/2 73/73/3 72/72/4
f 2/2/2 3/3/5 74/74/6 73/73/3
f 3/3/5 4/4/7 75/75/8 74/74/6
f 4/4/7 5/5/9 76/76/10 75/75/8
f 5/5/9 6/6/11 77/77/12 76/76/10
f 6/6/11 7/7/13 78/78/14 77/77/12
f 7/7/13 8/8/15 79/79/16 78/78/14
f 8/8/15 9/9/17 80/80/18 79/79/16
f 9/9/17 10/10/19 81/81/20 80/80/18
f 10/10/19 11/11/21 82/82/22 81/81/20
f 11/11/21 12/12/23 83/83/24 82/82/22
f 12/12/23 13/13/25 84/84/26 83/83/24
f 13/13/25 14/14/27 85/85/28 84/84/26
f 14/14/27 15/15/29 86/86/30 85/85/28
f 15/15/29 16/16/31 87/87/32 86/86/30
f 16/16/31 17/17/33 88/88/34 87/87/32
f 17/17/33 18/18/35 89/89/36 88/88/34
f 18/18/35 19/19/37 90/90/38 89/89/36
f 19/19/37 20/20/39 91/91/40 90/90/38
f 20/20/39 21/21/41 92/92/42 91/91/40
f 21/21/41 22/22/43 93/93/44 92/92/42
f 22/22/43 23/23/45 94/94/46 93/93/44
f 23/23/45 24/24/47 95/95/48 94/94/46
f 24/24/47 25/25/49 96/96/50 95/95/48
f 25/25/49 26/26/51 97/97/52 96/96/50
f 26/26/51 27/27/53 98/98/54 97/97/52
f 27/27/53 28/28/55 99/99/56 98/98/54
f 28/28/55 29/29/57 100/100/58 99/99/56
f 29/29/57 30/30/59 101/101/60 100/100/58
f 30/30/59 31/31/61 102/102/62 101/101/60
f 31/31/61 32/32/63 103/103/64 102/102/62
f 32/32/63 33/33/65 104/104/66 103/103/64
f 33/33/65 34/34/67 105/105/68 104/104/66
f 34/34/67 35/35/69 106/106/70 105/105/68
f 35/35/69 36/36/71 107/107/72 106/106/70
f 36/36/71 37/37/73 108/108/74 107/107/72
f 37/37/73 38/38/75 109/109/76 108/108/74
f 38/38/75 39/39/77 110/110/78 109/109/76
f 39/39/77 40/40/79 111/111/80 110/110/78
f 40/40/79 41/41/81 112/112/82 111/111/80
f 41/41/81 42/42/83 113/113/84 112/112/82
f 42/42/83 43/43/85 114/114/86 113/113/84
f 43/43/85 44/44/87 115/115/88 114/114/86
f 44/44/87 45/45/89 116/116/90 115/115/88
f 45/45/89 46/46/91 117/117/92 116/116/90
f 46/46/91 47/47/93 118/118/94 117/117/92
f 47/47/93 48/48/95 119/119/96 118/118/94
f 48/48/95 49/49/97 120/120/98 119/119/96
f 49/49/97 50/50/99 121/121/100 120/120/98
f 50/50/99 51/51/101 122/122/102 121/121/100
f 51/51/101 52/52/103 123/123/104 122/122/102
f 52/52/103 53/53/105 124/124/106 123/123/104
f 53/53/105 54/54/107 125/125/108 124/124/106
f 54/54/107 55/55/109 126/126/110 125/125/108
f 55/55/109 56/56/111 127/127/112 126/126/110
f 56/56/111 57/57/113 128/128/114 127/127/112
f 57/57/113 58/58/115 129/129/116 128/128/114
f 58/58/115 59/59/117 130/130/118 129/129/116
f 59/59/117 60/60/119 131/131/120 130/130/118
f 60/60/119 61/61/121 132/132/122 131/131/120
f 61/61/121 62/62/123 133/133/124 132/132/122
f 62/62/123 63/63/125 134/134/126 133/133/124
f 63/63/125 64/64/127 135/135/128 134/134/126
f 64/64/127 65/65/129 136/136/130 135/135/128
f 65/65/129 66/66/131 137/137/132 136/136/130
f 66/66/131 67/67/133 138/138/134 137/137/132
f 67/67/133 68/68/135 139/139/136 138/138/134
f 68/68/135 69/69/137 140/140/138 139/139/136
f 69/69/137 70/70/139 141/141/140 140/140/138
f 70/70/139 71/71/141 142/142/142 141/141/140
f 71/71/141 1/1/1 72/143/4 142/142/142
