# This file uses centimeters as units for non-parametric coordinates.

v 2.411190 0.000000 0.000000
v 2.409214 0.554144 0.000000
v 2.892237 -0.003951 0.000000
v 2.913968 -0.003951 0.000000
v 2.913968 0.641068 0.000000
v 2.868531 0.641068 0.000000
v 2.870106 0.084361 0.000000
v 2.387483 0.645019 0.000000
v 2.365753 0.645019 0.000000
v 2.365753 0.000000 0.000000
v 2.411584 0.469309 0.000000
v 2.365700 0.464645 0.000000
v 2.462864 0.488913 0.000000
v 2.507713 0.506943 0.000000
v 2.913968 0.178092 0.000000
v 2.868496 0.178817 0.000000
v 2.411235 0.053329 0.000000
v 2.810315 0.158860 0.000000
v 2.365748 0.040781 0.000000
v 2.767159 0.139744 0.000000
v 2.913968 -0.003951 0.025468
v 2.913968 0.178092 0.025468
v 2.868496 0.178817 0.025468
v 2.870106 0.084361 0.025468
v 2.892237 -0.003951 0.025468
v 2.411190 0.000000 0.025468
v 2.411235 0.053329 0.025468
v 2.365748 0.040781 0.025468
v 2.365753 0.000000 0.025468
v 2.409214 0.554144 0.025468
v 2.387483 0.645019 0.025468
v 2.365753 0.645019 0.025468
v 2.462864 0.488913 0.025468
v 2.507713 0.506943 0.025468
v 2.411584 0.469309 0.025468
v 2.365700 0.464645 0.025468
v 2.767159 0.139744 0.025468
v 2.810315 0.158860 0.025468
v 2.913968 0.641068 0.025468
v 2.868531 0.641068 0.025468
vt 0.087154 0.798326
vt 0.082882 0.467450
vt 0.853454 0.107369
vt 1.000000 0.083333
vt 1.000000 0.993912
vt 0.917118 0.993912
vt 0.882885 0.182478
vt 0.917057 0.529599
vt 0.162701 0.877713
vt 0.000000 1.000000
vt 0.522267 0.424652
vt 1.000000 0.583333
vt 0.626659 0.429618
vt 0.000000 0.416667
vt 0.290864 0.648955
vt 0.391348 0.658260
vt 0.000000 0.750000
vt 0.082999 0.651960
vt 0.000000 0.617203
vt 0.413681 0.529906
vt 0.455299 0.596122
vt 1.000000 0.708072
vt 0.917068 0.609585
vt 0.082896 0.578441
vt 0.595187 0.460198
vt 0.000000 0.510287
vt 0.488523 0.457361
vt 1.000000 0.583333
vt 1.000000 0.708072
vt 0.917068 0.609585
vt 0.917057 0.529599
vt 0.853454 0.107369
vt 1.000000 0.083333
vt 0.882885 0.182478
vt 0.082882 0.467450
vt 0.082896 0.578441
vt 0.000000 0.510287
vt 0.000000 0.416667
vt 0.087154 0.798326
vt 0.162701 0.877713
vt 0.000000 1.000000
vt 0.290864 0.648955
vt 0.413681 0.529906
vt 0.455299 0.596122
vt 0.391348 0.658260
vt 0.000000 0.617203
vt 0.082999 0.651960
vt 0.000000 0.750000
vt 0.488523 0.457361
vt 0.595187 0.460198
vt 1.000000 0.993912
vt 0.917118 0.993912
vt 0.522267 0.424652
vt 0.626659 0.429618
vt 1.000000 0.583333
vt 1.000000 0.708072
vt 0.917068 0.609585
vt 0.917057 0.529599
vt 0.853454 0.107369
vt 1.000000 0.083333
vt 0.082882 0.467450
vt 0.082896 0.578441
vt 0.000000 0.510287
vt 0.000000 0.416667
vt 0.162701 0.877713
vt 0.000000 1.000000
vt 0.290864 0.648955
vt 0.413681 0.529906
vt 0.455299 0.596122
vt 0.391348 0.658260
vt 0.082999 0.651960
vt 0.087154 0.798326
vt 0.000000 0.750000
vt 0.000000 0.617203
vt 0.488523 0.457361
vt 0.595187 0.460198
vt 1.000000 0.993912
vt 0.917118 0.993912
vt 0.522267 0.424652
vt 0.626659 0.429618
vn 0.000000 0.000000 1.000000
vn -0.000000 0.000000 1.000000
vn -0.000000 0.000000 1.000000
vn -0.000000 0.000000 1.000000
vn -0.000000 0.000000 1.000000
vn 0.000000 0.000000 1.000000
vn 0.000000 0.000000 1.000000
vn 0.000000 0.000000 1.000000
vn 0.000000 0.000000 1.000000
vn 0.000000 -0.000000 1.000000
vn -0.000000 -0.000000 1.000000
vn -0.000000 -0.000000 1.000000
vn 0.000000 -0.000000 1.000000
vn 0.000000 -0.000000 1.000000
vn 0.000000 0.000000 1.000000
vn 0.000000 0.000000 1.000000
vn 0.000000 0.000000 1.000000
vn 0.000000 0.000000 1.000000
vn -0.000000 0.000000 1.000000
vn -0.000000 0.000000 1.000000
vn 0.000000 0.000000 -1.000000
vn 0.000000 0.000000 -1.000000
vn 0.000000 0.000000 -1.000000
vn 0.000000 0.000000 -1.000000
vn 0.000000 0.000000 -1.000000
vn 0.000000 0.000000 -1.000000
vn 0.000000 0.000000 -1.000000
vn 0.000000 0.000000 -1.000000
vn 0.000000 0.000000 -1.000000
vn 0.000000 0.000000 -1.000000
vn 0.000000 0.000000 -1.000000
vn 0.000000 0.000000 -1.000000
vn 0.000000 0.000000 -1.000000
vn 0.000000 0.000000 -1.000000
vn 0.000000 0.000000 -1.000000
vn 0.000000 0.000000 -1.000000
vn 0.000000 0.000000 -1.000000
vn 0.000000 0.000000 -1.000000
vn 0.000000 0.000000 -1.000000
vn 0.000000 0.000000 -1.000000
vn 1.000000 -0.000002 0.000000
vn 1.000000 -0.000000 0.000000
vn 1.000000 -0.000000 0.000000
vn 1.000000 -0.000002 0.000000
vn -0.999996 -0.002830 0.000000
vn -0.999855 -0.017047 0.000000
vn -0.999855 -0.017047 0.000000
vn -0.999996 -0.002830 0.000000
vn -0.000000 -1.000000 0.000000
vn -0.000000 -1.000000 0.000000
vn -0.000000 -1.000000 0.000000
vn -0.000000 -1.000000 0.000000
vn 1.000000 -0.000839 0.000000
vn 1.000000 -0.000840 0.000000
vn 1.000000 -0.000840 0.000000
vn 1.000000 -0.000839 0.000000
vn -1.000000 -0.000112 0.000000
vn -1.000000 -0.000111 0.000000
vn -1.000000 -0.000111 0.000000
vn -1.000000 -0.000112 0.000000
vn -0.000000 -1.000000 0.000000
vn -0.000000 -1.000000 0.000000
vn -0.000000 -1.000000 0.000000
vn -0.000000 -1.000000 0.000000
vn -0.000003 1.000000 0.000000
vn -0.000003 1.000000 0.000000
vn -0.000003 1.000000 0.000000
vn -0.000003 1.000000 0.000000
vn -0.772337 -0.635214 0.000000
vn -0.756774 -0.653676 0.000000
vn -0.756774 -0.653676 0.000000
vn -0.772337 -0.635214 0.000000
vn 0.754541 0.656254 0.000000
vn 0.754162 0.656688 0.000000
vn 0.754162 0.656688 0.000000
vn 0.754541 0.656254 0.000000
vn 0.999992 0.004035 0.000000
vn 0.999610 0.027929 0.000000
vn 0.999610 0.027929 0.000000
vn 0.999992 0.004035 0.000000
vn -1.000000 0.000290 0.000000
vn -1.000000 0.000008 0.000000
vn -1.000000 0.000008 0.000000
vn -1.000000 0.000290 0.000000
vn -0.754002 -0.656872 0.000000
vn -0.754002 -0.656872 0.000000
vn 0.759097 0.650977 0.000000
vn 0.759097 0.650977 0.000000
vn 1.000000 0.000001 0.000000
vn 1.000000 0.000001 0.000000
vn 0.000000 1.000000 0.000000
vn 0.000000 1.000000 0.000000
vn 0.000000 1.000000 0.000000
vn 0.000000 1.000000 0.000000
vn -1.000000 0.000075 0.000000
vn -1.000000 0.000075 0.000000
vn -0.754277 -0.656556 0.000000
vn -0.754277 -0.656556 0.000000
vn 0.779888 0.625919 0.000000
vn 0.779888 0.625919 0.000000
s 1
f 21/55/1 22/56/2 23/57/3 24/58/4
f 25/59/5 21/60/1 24/7/4
f 26/61/6 27/62/7 28/63/8 29/64/9
f 30/1/10 31/65/11 32/66/12
f 30/67/10 33/68/13 34/69/14 31/70/11
f 36/74/15 35/71/16 30/72/10 32/73/12
f 34/69/14 33/68/13 37/75/17 38/76/18
f 23/57/3 22/56/2 39/77/19 40/78/20
f 28/63/8 27/62/7 35/71/16 36/74/15
f 38/76/18 37/75/17 25/79/5 24/80/4
s 4
f 4/28/21 7/31/22 16/30/23 15/29/24
f 3/32/25 7/34/22 4/33/21
f 1/35/26 10/38/27 19/37/28 17/36/29
f 2/39/30 9/41/31 8/40/32
f 2/42/30 8/45/32 14/44/33 13/43/34
f 12/46/35 9/48/31 2/39/30 11/47/36
f 14/44/33 18/50/37 20/49/38 13/43/34
f 16/30/23 6/52/39 5/51/40 15/29/24
f 19/37/28 12/46/35 11/47/36 17/36/29
f 18/50/37 7/54/22 3/53/25 20/49/38
s 7
f 4/12/41 15/22/42 22/56/43 21/55/44
s 8
f 16/23/45 7/8/46 24/58/47 23/57/48
s off
f 3/3/49 4/4/50 21/60/51 25/59/52
s 9
f 1/2/53 17/24/54 27/62/55 26/61/56
s 10
f 19/26/57 10/14/58 29/64/59 28/63/60
s off
f 10/14/61 1/2/62 26/61/63 29/64/64
f 8/9/65 9/10/66 32/66/67 31/65/68
s 11
f 2/15/69 13/20/70 33/68/71 30/67/72
s 12
f 14/21/73 8/16/74 31/70/75 34/69/76
s 9
f 11/18/77 2/1/78 30/72/79 35/71/80
s 10
f 9/17/81 12/19/82 36/74/83 32/73/84
s 11
f 13/20/70 20/27/85 37/75/86 33/68/71
s 12
f 18/25/87 14/21/73 34/69/76 38/76/88
s 7
f 15/22/42 5/5/89 39/77/90 22/56/43
s off
f 5/5/91 6/6/92 40/78/93 39/77/94
s 8
f 6/6/95 16/23/45 23/57/48 40/78/96
s 9
f 17/24/54 11/18/77 35/71/80 27/62/55
s 10
f 12/19/82 19/26/57 28/63/60 36/74/83
s 11
f 20/27/85 3/11/97 25/79/98 37/75/86
s 12
f 7/13/99 18/25/87 38/76/88 24/80/100
