# This file uses centimeters as units for non-parametric coordinates.

v 2.116796 0.578838 0.000000
v 2.128649 0.616374 0.000000
v 2.150379 0.037536 0.000000
v 1.597168 0.314550 0.000000
v 1.915454 0.651378 0.000000
v 1.929117 -0.009800 0.000000
v 2.150379 0.322016 0.000000
v 2.104942 0.322016 0.000000
v 2.104942 0.058279 0.000000
v 1.912039 0.610975 0.000000
v 1.929117 0.031605 0.000000
v 1.645858 0.313618 0.000000
v 1.780517 0.023362 0.000000
v 1.804935 0.060425 0.000000
v 1.696628 0.083327 0.000000
v 1.733592 0.112270 0.000000
v 1.612850 0.213901 0.000000
v 1.660165 0.226679 0.000000
v 1.990867 -0.007627 0.000000
v 1.989578 0.033878 0.000000
v 1.807906 0.636256 0.000000
v 1.821280 0.596650 0.000000
v 1.610689 0.423861 0.000000
v 1.657497 0.412996 0.000000
v 1.719353 0.588770 0.000000
v 1.748628 0.554809 0.000000
v 2.083842 0.629707 0.000000
v 2.073905 0.590775 0.000000
v 1.999434 0.645538 0.000000
v 1.994893 0.605326 0.000000
v 1.858575 0.648009 0.000000
v 1.861027 0.606606 0.000000
v 1.763315 0.617093 0.000000
v 1.786593 0.580814 0.000000
v 1.683630 0.555201 0.000000
v 1.719174 0.526249 0.000000
v 1.652276 0.514806 0.000000
v 1.692739 0.491080 0.000000
v 1.628377 0.473681 0.000000
v 1.673202 0.456021 0.000000
v 1.600624 0.373645 0.000000
v 1.648607 0.369011 0.000000
v 1.601234 0.265716 0.000000
v 1.649987 0.271260 0.000000
v 1.676575 0.188290 0.000000
v 1.632634 0.168029 0.000000
v 1.658798 0.126732 0.000000
v 1.700342 0.149847 0.000000
v 1.765232 0.085748 0.000000
v 1.734865 0.051384 0.000000
v 1.829284 0.003959 0.000000
v 1.843697 0.044398 0.000000
v 1.885246 0.034130 0.000000
v 1.879716 -0.006409 0.000000
v 2.045009 0.040611 0.000000
v 2.053983 0.000814 0.000000
v 2.115206 0.019336 0.000000
v 2.116796 0.578838 0.025468
v 2.128649 0.616374 0.025468
v 2.083842 0.629707 0.025468
v 2.073905 0.590775 0.025468
v 2.150379 0.037536 0.025468
v 2.150379 0.322016 0.025468
v 2.104942 0.322016 0.025468
v 2.104942 0.058279 0.025468
v 1.597168 0.314550 0.025468
v 1.601234 0.265716 0.025468
v 1.649987 0.271260 0.025468
v 1.645858 0.313618 0.025468
v 1.765232 0.085748 0.025468
v 1.734865 0.051384 0.025468
v 1.780517 0.023362 0.025468
v 1.804935 0.060425 0.025468
v 1.676575 0.188290 0.025468
v 1.632634 0.168029 0.025468
v 1.658798 0.126732 0.025468
v 1.700342 0.149847 0.025468
v 2.115206 0.019336 0.025468
v 1.829284 0.003959 0.025468
v 1.843697 0.044398 0.025468
v 1.929117 -0.009800 0.025468
v 1.990867 -0.007627 0.025468
v 1.989578 0.033878 0.025468
v 1.929117 0.031605 0.025468
v 1.807906 0.636256 0.025468
v 1.763315 0.617093 0.025468
v 1.786593 0.580814 0.025468
v 1.821280 0.596650 0.025468
v 1.610689 0.423861 0.025468
v 1.600624 0.373645 0.025468
v 1.648607 0.369011 0.025468
v 1.657497 0.412996 0.025468
v 1.719353 0.588770 0.025468
v 1.683630 0.555201 0.025468
v 1.719174 0.526249 0.025468
v 1.748628 0.554809 0.025468
v 1.915454 0.651378 0.025468
v 1.858575 0.648009 0.025468
v 1.861027 0.606606 0.025468
v 1.912039 0.610975 0.025468
v 1.999434 0.645538 0.025468
v 1.994893 0.605326 0.025468
v 1.652276 0.514806 0.025468
v 1.692739 0.491080 0.025468
v 1.628377 0.473681 0.025468
v 1.673202 0.456021 0.025468
v 1.612850 0.213901 0.025468
v 1.660165 0.226679 0.025468
v 1.696628 0.083327 0.025468
v 1.733592 0.112270 0.025468
v 1.885246 0.034130 0.025468
v 1.879716 -0.006409 0.025468
v 2.053983 0.000814 0.025468
v 2.045009 0.040611 0.025468
vt 0.939288 0.890841
vt 0.960715 0.947641
vt 1.000000 0.190575
vt 0.000891 0.480445
vt 0.585886 0.999836
vt 0.605961 0.000028
vt 1.000000 0.480819
vt 0.917858 0.480819
vt 0.905030 0.187367
vt 0.577680 0.938366
vt 0.601608 0.062781
vt 0.088523 0.481011
vt 0.400000 0.026957
vt 0.400000 0.096403
vt 0.183340 0.152844
vt 0.234819 0.196909
vt 0.031749 0.333333
vt 0.124978 0.333333
vt 0.800000 0.012652
vt 0.800000 0.075436
vt 0.400000 0.981836
vt 0.400000 0.916381
vt 0.027695 0.666667
vt 0.119066 0.666667
vt 0.177938 0.852505
vt 0.223102 0.811726
vt 0.800000 0.981914
vt 0.800000 0.919711
vt 0.683193 0.991691
vt 0.678678 0.929892
vt 0.492943 0.990836
vt 0.494727 0.928102
vt 0.296744 0.921699
vt 0.325169 0.872110
vt 0.140352 0.806014
vt 0.196625 0.774809
vt 0.100992 0.757329
vt 0.169088 0.736413
vt 0.064344 0.711998
vt 0.139274 0.694842
vt 0.017414 0.595242
vt 0.107880 0.598672
vt 0.015270 0.411896
vt 0.103596 0.419953
vt 0.153288 0.298172
vt 0.078143 0.278095
vt 0.121230 0.226794
vt 0.186028 0.257509
vt 0.305423 0.153950
vt 0.270618 0.102133
vt 0.472420 0.017489
vt 0.466073 0.085384
vt 0.533840 0.074083
vt 0.542987 0.008262
vt 0.858929 0.138237
vt 0.884379 0.087717
vt 0.942190 0.139146
vt 0.939288 0.890841
vt 0.960715 0.947641
vt 0.800000 0.981914
vt 0.800000 0.919711
vt 1.000000 0.190575
vt 1.000000 0.480819
vt 0.917858 0.480819
vt 0.905030 0.187367
vt 0.000891 0.480445
vt 0.015270 0.411896
vt 0.103596 0.419953
vt 0.088523 0.481011
vt 0.305423 0.153950
vt 0.270618 0.102133
vt 0.400000 0.026957
vt 0.400000 0.096403
vt 0.153288 0.298172
vt 0.078143 0.278095
vt 0.121230 0.226794
vt 0.186028 0.257509
vt 0.942190 0.139146
vt 0.472420 0.017489
vt 0.466073 0.085384
vt 0.605961 0.000028
vt 0.800000 0.012652
vt 0.800000 0.075436
vt 0.601608 0.062781
vt 0.400000 0.981836
vt 0.296744 0.921699
vt 0.325169 0.872110
vt 0.400000 0.916381
vt 0.027695 0.666667
vt 0.017414 0.595242
vt 0.107880 0.598672
vt 0.119066 0.666667
vt 0.177938 0.852505
vt 0.140352 0.806014
vt 0.196625 0.774809
vt 0.223102 0.811726
vt 0.585886 0.999836
vt 0.492943 0.990836
vt 0.494727 0.928102
vt 0.577680 0.938366
vt 0.683193 0.991691
vt 0.678678 0.929892
vt 0.100992 0.757329
vt 0.169088 0.736413
vt 0.064344 0.711998
vt 0.139274 0.694842
vt 0.031749 0.333333
vt 0.124978 0.333333
vt 0.183340 0.152844
vt 0.234819 0.196909
vt 0.533840 0.074083
vt 0.542987 0.008262
vt 0.884379 0.087717
vt 0.858929 0.138237
vt 0.939288 0.890841
vt 0.960715 0.947641
vt 0.800000 0.981914
vt 0.800000 0.919711
vt 1.000000 0.190575
vt 1.000000 0.480819
vt 0.917858 0.480819
vt 0.905030 0.187367
vt 0.000891 0.480445
vt 0.015270 0.411896
vt 0.103596 0.419953
vt 0.088523 0.481011
vt 0.270618 0.102133
vt 0.400000 0.026957
vt 0.400000 0.096403
vt 0.305423 0.153950
vt 0.078143 0.278095
vt 0.121230 0.226794
vt 0.186028 0.257509
vt 0.153288 0.298172
vt 0.942190 0.139146
vt 0.472420 0.017489
vt 0.466073 0.085384
vt 0.605961 0.000028
vt 0.800000 0.012652
vt 0.800000 0.075436
vt 0.601608 0.062781
vt 0.400000 0.981836
vt 0.296744 0.921699
vt 0.325169 0.872110
vt 0.400000 0.916381
vt 0.027695 0.666667
vt 0.017414 0.595242
vt 0.107880 0.598672
vt 0.119066 0.666667
vt 0.177938 0.852505
vt 0.140352 0.806014
vt 0.196625 0.774809
vt 0.223102 0.811726
vt 0.585886 0.999836
vt 0.492943 0.990836
vt 0.494727 0.928102
vt 0.577680 0.938366
vt 0.683193 0.991691
vt 0.678678 0.929892
vt 0.100992 0.757329
vt 0.169088 0.736413
vt 0.064344 0.711998
vt 0.139274 0.694842
vt 0.031749 0.333333
vt 0.124978 0.333333
vt 0.183340 0.152844
vt 0.234819 0.196909
vt 0.542987 0.008262
vt 0.533840 0.074083
vt 0.884379 0.087717
vt 0.858929 0.138237
vn -0.000000 0.000000 1.000000
vn -0.000000 0.000000 1.000000
vn 0.000000 0.000000 1.000000
vn 0.000000 0.000000 1.000000
vn -0.000000 0.000000 1.000000
vn -0.000000 0.000000 1.000000
vn -0.000000 0.000000 1.000000
vn -0.000000 0.000000 1.000000
vn -0.000000 -0.000000 1.000000
vn -0.000000 -0.000000 1.000000
vn -0.000000 -0.000000 1.000000
vn -0.000000 -0.000000 1.000000
vn -0.000000 0.000000 1.000000
vn -0.000000 0.000000 1.000000
vn -0.000000 0.000000 1.000000
vn -0.000000 0.000000 1.000000
vn -0.000000 0.000000 1.000000
vn -0.000000 0.000000 1.000000
vn -0.000000 0.000000 1.000000
vn -0.000000 0.000000 1.000000
vn 0.000000 0.000000 1.000000
vn -0.000000 0.000000 1.000000
vn -0.000000 0.000000 1.000000
vn -0.000000 0.000000 1.000000
vn 0.000000 0.000000 1.000000
vn 0.000000 0.000000 1.000000
vn -0.000000 0.000000 1.000000
vn 0.000000 0.000000 1.000000
vn 0.000000 0.000000 1.000000
vn 0.000000 0.000000 1.000000
vn 0.000000 0.000000 1.000000
vn 0.000000 0.000000 1.000000
vn 0.000000 0.000000 1.000000
vn 0.000000 0.000000 1.000000
vn 0.000000 0.000000 1.000000
vn -0.000000 -0.000000 1.000000
vn 0.000000 -0.000000 1.000000
vn 0.000000 -0.000000 1.000000
vn -0.000000 -0.000000 1.000000
vn 0.000000 0.000000 1.000000
vn 0.000000 0.000000 1.000000
vn 0.000000 0.000000 1.000000
vn 0.000000 0.000000 1.000000
vn 0.000000 0.000000 1.000000
vn 0.000000 0.000000 1.000000
vn 0.000000 0.000000 1.000000
vn 0.000000 0.000000 1.000000
vn 0.000000 0.000000 1.000000
vn 0.000000 0.000000 1.000000
vn -0.000000 0.000000 1.000000
vn -0.000000 0.000000 1.000000
vn 0.000000 0.000000 1.000000
vn 0.000000 0.000000 1.000000
vn 0.000000 0.000000 1.000000
vn 0.000000 0.000000 1.000000
vn 0.000000 0.000000 1.000000
vn 0.000000 0.000000 1.000000
vn 0.000000 0.000000 1.000000
vn 0.000000 0.000000 1.000000
vn 0.000000 0.000000 1.000000
vn 0.000000 0.000000 1.000000
vn 0.000000 0.000000 1.000000
vn 0.000000 0.000000 1.000000
vn 0.000000 -0.000000 1.000000
vn 0.000000 -0.000000 1.000000
vn 0.000000 -0.000000 1.000000
vn 0.000000 -0.000000 1.000000
vn 0.000000 -0.000000 1.000000
vn 0.000000 -0.000000 1.000000
vn -0.000000 0.000000 1.000000
vn -0.000000 0.000000 1.000000
vn -0.000000 0.000000 1.000000
vn -0.000000 -0.000000 1.000000
vn 0.000000 -0.000000 1.000000
vn 0.000000 -0.000000 1.000000
vn -0.000000 0.000000 1.000000
vn -0.000000 0.000000 1.000000
vn 0.000000 -0.000000 1.000000
vn 0.000000 -0.000000 1.000000
vn 0.000000 -0.000000 1.000000
vn 0.000000 -0.000000 1.000000
vn 0.000000 0.000000 1.000000
vn 0.000000 0.000000 1.000000
vn -0.000000 -0.000000 1.000000
vn -0.000000 -0.000000 1.000000
vn -0.000000 -0.000000 1.000000
vn -0.000000 -0.000000 1.000000
vn 0.000000 0.000000 -1.000000
vn 0.000000 0.000000 -1.000000
vn 0.000000 0.000000 -1.000000
vn 0.000000 0.000000 -1.000000
vn 0.000000 0.000000 -1.000000
vn 0.000000 0.000000 -1.000000
vn 0.000000 0.000000 -1.000000
vn 0.000000 0.000000 -1.000000
vn 0.000000 0.000000 -1.000000
vn 0.000000 0.000000 -1.000000
vn 0.000000 0.000000 -1.000000
vn 0.000000 0.000000 -1.000000
vn 0.000000 0.000000 -1.000000
vn 0.000000 0.000000 -1.000000
vn 0.000000 0.000000 -1.000000
vn 0.000000 0.000000 -1.000000
vn 0.000000 0.000000 -1.000000
vn 0.000000 0.000000 -1.000000
vn 0.000000 0.000000 -1.000000
vn 0.000000 0.000000 -1.000000
vn 0.000000 0.000000 -1.000000
vn 0.000000 0.000000 -1.000000
vn 0.000000 0.000000 -1.000000
vn 0.000000 0.000000 -1.000000
vn 0.000000 0.000000 -1.000000
vn 0.000000 0.000000 -1.000000
vn 0.000000 0.000000 -1.000000
vn 0.000000 0.000000 -1.000000
vn 0.000000 0.000000 -1.000000
vn 0.000000 0.000000 -1.000000
vn 0.000000 0.000000 -1.000000
vn 0.000000 0.000000 -1.000000
vn 0.000000 0.000000 -1.000000
vn 0.000000 0.000000 -1.000000
vn 0.000000 0.000000 -1.000000
vn 0.000000 0.000000 -1.000000
vn 0.000000 0.000000 -1.000000
vn 0.000000 0.000000 -1.000000
vn 0.000000 0.000000 -1.000000
vn 0.000000 0.000000 -1.000000
vn 0.000000 0.000000 -1.000000
vn 0.000000 0.000000 -1.000000
vn 0.000000 0.000000 -1.000000
vn 0.000000 0.000000 -1.000000
vn 0.000000 0.000000 -1.000000
vn 0.000000 0.000000 -1.000000
vn 0.000000 0.000000 -1.000000
vn 0.000000 0.000000 -1.000000
vn 0.000000 0.000000 -1.000000
vn 0.000000 0.000000 -1.000000
vn 0.000000 0.000000 -1.000000
vn 0.000000 0.000000 -1.000000
vn 0.000000 0.000000 -1.000000
vn 0.000000 0.000000 -1.000000
vn 0.000000 0.000000 -1.000000
vn 0.000000 0.000000 -1.000000
vn 0.000000 0.000000 -1.000000
vn 0.000000 0.000000 -1.000000
vn 0.000000 0.000000 -1.000000
vn 0.000000 0.000000 -1.000000
vn 0.000000 0.000000 -1.000000
vn 0.000000 0.000000 -1.000000
vn 0.000000 0.000000 -1.000000
vn 0.000000 0.000000 -1.000000
vn 0.000000 0.000000 -1.000000
vn 0.000000 0.000000 -1.000000
vn 0.000000 0.000000 -1.000000
vn 0.000000 0.000000 -1.000000
vn 0.000000 0.000000 -1.000000
vn 0.000000 0.000000 -1.000000
vn 0.000000 0.000000 -1.000000
vn 0.000000 0.000000 -1.000000
vn 0.000000 0.000000 -1.000000
vn 0.000000 0.000000 -1.000000
vn 0.000000 0.000000 -1.000000
vn 0.000000 0.000000 -1.000000
vn 0.000000 0.000000 -1.000000
vn 0.000000 0.000000 -1.000000
vn 0.000000 0.000000 -1.000000
vn 0.000000 0.000000 -1.000000
vn 0.000000 0.000000 -1.000000
vn 0.000000 0.000000 -1.000000
vn 0.000000 0.000000 -1.000000
vn 0.000000 0.000000 -1.000000
vn 0.000000 0.000000 -1.000000
vn 0.000000 0.000000 -1.000000
vn 0.000000 0.000000 -1.000000
vn 0.953589 -0.301112 0.000000
vn 0.953589 -0.301112 0.000000
vn 0.953589 -0.301112 0.000000
vn 0.953589 -0.301112 0.000000
vn 0.285210 0.958465 0.000000
vn 0.220162 0.975463 0.000000
vn 0.220162 0.975463 0.000000
vn 0.285210 0.958465 0.000000
vn -0.212334 -0.977197 0.000000
vn -0.268115 -0.963387 0.000000
vn -0.268115 -0.963387 0.000000
vn -0.212334 -0.977197 0.000000
vn 1.000000 0.000000 0.000000
vn 1.000000 0.000000 0.000000
vn 1.000000 0.000000 0.000000
vn 1.000000 0.000000 0.000000
vn 0.000000 1.000000 0.000000
vn 0.000000 1.000000 0.000000
vn 0.000000 1.000000 0.000000
vn 0.000000 1.000000 0.000000
vn -1.000000 0.000000 0.000000
vn -1.000000 0.000000 0.000000
vn -1.000000 0.000000 0.000000
vn -1.000000 0.000000 0.000000
vn -0.999984 -0.005653 0.000000
vn -0.988078 -0.153955 0.000000
vn -0.988078 -0.153955 0.000000
vn -0.999984 -0.005653 0.000000
vn 0.986729 0.162374 0.000000
vn 0.999900 0.014117 0.000000
vn 0.999900 0.014117 0.000000
vn 0.986729 0.162374 0.000000
vn -0.581515 -0.813535 0.000000
vn -0.448848 -0.893608 0.000000
vn -0.448848 -0.893608 0.000000
vn -0.581515 -0.813535 0.000000
vn 0.466208 0.884675 0.000000
vn 0.587864 0.808960 0.000000
vn 0.587864 0.808960 0.000000
vn 0.466208 0.884675 0.000000
vn -0.884629 -0.466296 0.000000
vn -0.797886 -0.602809 0.000000
vn -0.797886 -0.602809 0.000000
vn -0.884629 -0.466296 0.000000
vn 0.799994 0.600008 0.000000
vn 0.886153 0.463393 0.000000
vn 0.886153 0.463393 0.000000
vn 0.799994 0.600008 0.000000
vn 0.355993 -0.934489 0.000000
vn 0.459568 -0.888143 0.000000
vn 0.459568 -0.888143 0.000000
vn 0.355993 -0.934489 0.000000
vn -0.287453 -0.957795 0.000000
vn -0.287453 -0.957795 0.000000
vn 0.311165 0.950356 0.000000
vn 0.311165 0.950356 0.000000
vn -0.010960 -0.999940 0.000000
vn 0.084693 -0.996407 0.000000
vn 0.084693 -0.996407 0.000000
vn -0.010960 -0.999940 0.000000
vn -0.077478 0.996994 0.000000
vn 0.002413 0.999997 0.000000
vn 0.002413 0.999997 0.000000
vn -0.077478 0.996994 0.000000
vn -0.308694 0.951162 0.000000
vn -0.472584 0.881286 0.000000
vn -0.472584 0.881286 0.000000
vn -0.308694 0.951162 0.000000
vn 0.499074 -0.866560 0.000000
vn 0.327411 -0.944882 0.000000
vn 0.327411 -0.944882 0.000000
vn 0.499074 -0.866560 0.000000
vn -0.963603 0.267338 0.000000
vn -0.992437 0.122757 0.000000
vn -0.992437 0.122757 0.000000
vn -0.963603 0.267338 0.000000
vn 0.993212 -0.116322 0.000000
vn 0.962294 -0.272011 0.000000
vn 0.962294 -0.272011 0.000000
vn 0.993212 -0.116322 0.000000
vn -0.613414 0.789762 0.000000
vn -0.740750 0.671781 0.000000
vn -0.740750 0.671781 0.000000
vn -0.613414 0.789762 0.000000
vn 0.751836 -0.659350 0.000000
vn 0.629112 -0.777314 0.000000
vn 0.629112 -0.777314 0.000000
vn 0.751836 -0.659350 0.000000
vn 0.017541 0.999846 0.000000
vn -0.139239 0.990259 0.000000
vn -0.139239 0.990259 0.000000
vn 0.017541 0.999846 0.000000
vn 0.155897 -0.987773 0.000000
vn -0.009556 -0.999954 0.000000
vn -0.009556 -0.999954 0.000000
vn 0.155897 -0.987773 0.000000
vn 0.127644 0.991820 0.000000
vn 0.127644 0.991820 0.000000
vn -0.123831 -0.992303 0.000000
vn -0.123831 -0.992303 0.000000
vn -0.827780 0.561053 0.000000
vn -0.827780 0.561053 0.000000
vn 0.836675 -0.547700 0.000000
vn 0.836675 -0.547700 0.000000
vn -0.909427 0.415864 0.000000
vn -0.909427 0.415864 0.000000
vn 0.911465 -0.411379 0.000000
vn 0.911465 -0.411379 0.000000
vn -0.952025 -0.306019 0.000000
vn -0.952025 -0.306019 0.000000
vn 0.952299 0.305168 0.000000
vn 0.952299 0.305168 0.000000
vn -0.703740 -0.710458 0.000000
vn -0.703740 -0.710458 0.000000
vn 0.702756 0.711430 0.000000
vn 0.702756 0.711430 0.000000
vn -0.136520 -0.990637 0.000000
vn -0.136520 -0.990637 0.000000
vn 0.148114 0.988970 0.000000
vn 0.148114 0.988970 0.000000
vn 0.211923 -0.977286 0.000000
vn 0.211923 -0.977286 0.000000
vn -0.206933 0.978355 0.000000
vn -0.206933 0.978355 0.000000
vn -0.282759 0.959191 0.000000
vn -0.282759 0.959191 0.000000
s 1
f 58/115/1 59/116/2 60/117/3 61/118/4
s 2
f 62/119/5 63/120/6 64/121/7 65/122/8
s 3
f 66/123/9 67/124/10 68/125/11 69/126/12
s 4
f 70/130/13 71/127/14 72/128/15 73/129/16
s off
f 74/134/17 75/131/18 76/132/19 77/133/20
s 2
f 65/122/8 78/135/21 62/119/5
s 4
f 72/128/15 79/136/22 80/137/23 73/129/16
s 5
f 81/138/24 82/139/25 83/140/26 84/141/27
s 6
f 85/142/28 86/143/29 87/144/30 88/145/31
s 7
f 89/146/32 90/147/33 91/148/34 92/149/35
s 8
f 93/150/36 94/151/37 95/152/38 96/153/39
s 9
f 97/154/40 98/155/41 99/156/42 100/157/43
s 1
f 60/117/3 101/158/44 102/159/45 61/118/4
s 9
f 102/159/46 101/158/47 97/154/40 100/157/43
s 6
f 99/156/48 98/155/49 85/142/28 88/145/31
s 8
f 87/144/50 86/143/51 93/150/36 96/153/39
s off
f 95/152/52 94/151/53 103/160/54 104/161/55
f 104/161/56 103/160/57 105/162/58 106/163/59
s 7
f 106/163/60 105/162/61 89/146/32 92/149/35
s 3
f 91/148/62 90/147/63 66/123/9 69/126/12
s 10
f 68/125/64 67/124/65 107/164/66 108/165/67
f 107/164/66 75/131/68 74/134/69 108/165/67
s 11
f 77/133/70 76/132/71 109/166/72 110/167/73
f 109/166/72 71/127/74 70/130/75 110/167/73
s 5
f 111/169/76 112/168/77 81/138/24 84/141/27
s off
f 80/137/78 79/136/79 112/168/80 111/169/81
s 5
f 82/139/25 113/170/82 114/171/83 83/140/26
s off
f 114/171/84 113/170/85 78/135/86 65/122/87
s 12
f 1/58/88 28/61/89 27/60/90 2/59/91
s 13
f 3/62/92 9/65/93 8/64/94 7/63/95
s 14
f 4/66/96 12/69/97 44/68/98 43/67/99
s 15
f 49/70/100 14/73/101 13/72/102 50/71/103
s off
f 45/74/104 48/77/105 47/76/106 46/75/107
s 13
f 9/65/93 3/62/92 57/78/108
s 15
f 13/72/102 14/73/101 52/80/109 51/79/110
s 16
f 6/81/111 11/84/112 20/83/113 19/82/114
s 17
f 21/85/115 22/88/116 34/87/117 33/86/118
s 18
f 23/89/119 24/92/120 42/91/121 41/90/122
s 19
f 25/93/123 26/96/124 36/95/125 35/94/126
s 20
f 5/97/127 10/100/128 32/99/129 31/98/130
s 12
f 27/60/90 28/61/89 30/102/131 29/101/132
s 20
f 30/102/133 10/100/128 5/97/127 29/101/134
s 17
f 32/99/135 22/88/116 21/85/115 31/98/136
s 19
f 34/87/137 26/96/124 25/93/123 33/86/138
s off
f 36/95/139 38/104/140 37/103/141 35/94/142
f 38/104/143 40/106/144 39/105/145 37/103/146
s 18
f 40/106/147 24/92/120 23/89/119 39/105/148
s 14
f 42/91/149 12/69/97 4/66/96 41/90/150
s 21
f 44/68/151 18/108/152 17/107/153 43/67/154
f 17/107/153 18/108/152 45/74/155 46/75/156
s 22
f 48/77/157 16/110/158 15/109/159 47/76/160
f 15/109/159 16/110/158 49/70/161 50/71/162
s 16
f 53/111/163 11/84/112 6/81/111 54/112/164
s off
f 52/80/165 53/111/166 54/112/167 51/79/168
s 16
f 19/82/114 20/83/113 55/114/169 56/113/170
s off
f 55/114/171 9/65/172 57/78/173 56/113/174
f 1/1/175 2/2/176 59/116/177 58/115/178
s 23
f 2/2/179 27/27/180 60/117/181 59/116/182
s 24
f 28/28/183 1/1/184 58/115/185 61/118/186
s off
f 3/3/187 7/7/188 63/120/189 62/119/190
f 7/7/191 8/8/192 64/121/193 63/120/194
f 8/8/195 9/9/196 65/122/197 64/121/198
s 23
f 4/4/199 43/43/200 67/124/201 66/123/202
s 24
f 44/44/203 12/12/204 69/126/205 68/125/206
s 23
f 50/50/207 13/13/208 72/128/209 71/127/210
s 24
f 14/14/211 49/49/212 70/130/213 73/129/214
s 23
f 46/46/215 47/47/216 76/132/217 75/131/218
s 24
f 48/48/219 45/45/220 74/134/221 77/133/222
s 23
f 57/57/223 3/3/224 62/119/225 78/135/226
f 13/13/208 51/51/227 79/136/228 72/128/209
s 24
f 52/52/229 14/14/211 73/129/214 80/137/230
s 23
f 6/6/231 19/19/232 82/139/233 81/138/234
s 24
f 20/20/235 11/11/236 84/141/237 83/140/238
s 23
f 21/21/239 33/33/240 86/143/241 85/142/242
s 24
f 34/34/243 22/22/244 88/145/245 87/144/246
s 23
f 23/23/247 41/41/248 90/147/249 89/146/250
s 24
f 42/42/251 24/24/252 92/149/253 91/148/254
s 23
f 25/25/255 35/35/256 94/151/257 93/150/258
s 24
f 36/36/259 26/26/260 96/153/261 95/152/262
s 23
f 5/5/263 31/31/264 98/155/265 97/154/266
s 24
f 32/32/267 10/10/268 100/157/269 99/156/270
s 23
f 27/27/180 29/29/271 101/158/272 60/117/181
s 24
f 30/30/273 28/28/183 61/118/186 102/159/274
s 23
f 29/29/271 5/5/263 97/154/266 101/158/272
s 24
f 10/10/268 30/30/273 102/159/274 100/157/269
s 23
f 31/31/264 21/21/239 85/142/242 98/155/265
s 24
f 22/22/244 32/32/267 99/156/270 88/145/245
s 23
f 33/33/240 25/25/255 93/150/258 86/143/241
s 24
f 26/26/260 34/34/243 87/144/246 96/153/261
s 23
f 35/35/256 37/37/275 103/160/276 94/151/257
s 24
f 38/38/277 36/36/259 95/152/262 104/161/278
s 23
f 37/37/275 39/39/279 105/162/280 103/160/276
s 24
f 40/40/281 38/38/277 104/161/278 106/163/282
s 23
f 39/39/279 23/23/247 89/146/250 105/162/280
s 24
f 24/24/252 40/40/281 106/163/282 92/149/253
s 23
f 41/41/248 4/4/199 66/123/202 90/147/249
s 24
f 12/12/204 42/42/251 91/148/254 69/126/205
s 23
f 43/43/200 17/17/283 107/164/284 67/124/201
s 24
f 18/18/285 44/44/203 68/125/206 108/165/286
s 23
f 17/17/283 46/46/215 75/131/218 107/164/284
s 24
f 45/45/220 18/18/285 108/165/286 74/134/221
s 23
f 47/47/216 15/15/287 109/166/288 76/132/217
s 24
f 16/16/289 48/48/219 77/133/222 110/167/290
s 23
f 15/15/287 50/50/207 71/127/210 109/166/288
s 24
f 49/49/212 16/16/289 110/167/290 70/130/213
s 23
f 54/54/291 6/6/231 81/138/234 112/168/292
s 24
f 11/11/236 53/53/293 111/169/294 84/141/237
s 23
f 51/51/227 54/54/291 112/168/292 79/136/228
s 24
f 53/53/293 52/52/229 80/137/230 111/169/294
s 23
f 19/19/232 56/56/295 113/170/296 82/139/233
s 24
f 55/55/297 20/20/235 83/140/238 114/171/298
s 23
f 56/56/295 57/57/223 78/135/226 113/170/296
s 24
f 9/9/299 55/55/297 114/171/298 65/122/300
