# This file uses centimeters as units for non-parametric coordinates.

v 3.756535 -0.000000 0.000000
v 3.800986 0.000000 0.000000
v 3.800985 0.600569 0.000000
v 4.018296 0.600569 0.000000
v 4.018296 0.641068 0.000000
v 3.539225 0.641068 0.000000
v 3.539225 0.600569 0.000000
v 3.756535 0.600569 0.000000
v 3.756535 0.641068 0.000000
v 3.800985 0.641068 0.000000
v 3.800985 0.600569 0.025468
v 3.800985 0.641068 0.025468
v 3.756535 0.641068 0.025468
v 3.756535 0.600569 0.025468
v 3.756535 0.000000 0.025468
v 3.800986 0.000000 0.025468
v 3.539225 0.641068 0.025468
v 3.539225 0.600569 0.025468
v 4.018296 0.641068 0.025468
v 4.018296 0.600569 0.025468
vt 0.523196 0.899983
vt 0.875000 0.936825
vt 0.000000 1.000000
vt 0.000000 0.936825
vt 0.351804 0.916905
vt 0.453608 0.500000
vt 0.523196 0.642857
vt 0.500000 1.000000
vt 0.250000 1.000000
vt 0.290338 1.000000
vt 0.523196 0.899983
vt 0.290338 1.000000
vt 0.250000 1.000000
vt 0.351804 0.916905
vt 0.453608 0.500000
vt 0.523196 0.642857
vt 0.000000 1.000000
vt 0.000000 0.936825
vt 0.500000 1.000000
vt 0.875000 0.936825
vt 0.290338 1.000000
vt 0.250000 1.000000
vt 0.351804 0.916905
vt 0.453608 0.500000
vt 0.523196 0.642857
vt 0.523196 0.899983
vt 0.000000 1.000000
vt 0.000000 0.936825
vt 0.500000 1.000000
vt 0.875000 0.936825
vn 0.000000 0.000000 1.000000
vn 0.000000 0.000000 1.000000
vn 0.000000 0.000000 1.000000
vn 0.000000 0.000000 1.000000
vn 0.000000 0.000000 1.000000
vn 0.000000 0.000000 1.000000
vn 0.000000 0.000000 1.000000
vn 0.000000 0.000000 1.000000
vn 0.000000 0.000000 1.000000
vn 0.000000 0.000000 1.000000
vn 0.000000 0.000000 1.000000
vn 0.000000 0.000000 1.000000
vn 0.000000 0.000000 -1.000000
vn 0.000000 0.000000 -1.000000
vn 0.000000 0.000000 -1.000000
vn 0.000000 0.000000 -1.000000
vn 0.000000 0.000000 -1.000000
vn 0.000000 0.000000 -1.000000
vn 0.000000 0.000000 -1.000000
vn 0.000000 0.000000 -1.000000
vn 0.000000 0.000000 -1.000000
vn 0.000000 0.000000 -1.000000
vn 0.000000 0.000000 -1.000000
vn 0.000000 0.000000 -1.000000
vn 0.000000 1.000000 0.000000
vn 0.000000 1.000000 0.000000
vn 0.000000 1.000000 0.000000
vn 0.000000 1.000000 0.000000
vn -1.000000 0.000000 0.000000
vn -1.000000 0.000000 0.000000
vn -1.000000 0.000000 0.000000
vn -1.000000 0.000000 0.000000
vn 0.000000 -1.000000 0.000000
vn 0.000000 -1.000000 0.000000
vn 0.000000 -1.000000 0.000000
vn 0.000000 -1.000000 0.000000
vn 1.000000 0.000001 0.000000
vn 1.000000 0.000001 0.000000
vn 1.000000 0.000001 0.000000
vn 1.000000 0.000001 0.000000
vn 0.000000 1.000000 0.000000
vn 0.000000 1.000000 0.000000
vn -1.000000 0.000000 0.000000
vn -1.000000 0.000000 0.000000
vn -1.000000 0.000000 0.000000
vn -1.000000 0.000000 0.000000
vn 0.000000 -1.000000 0.000000
vn 0.000000 -1.000000 0.000000
vn 0.000000 -1.000000 0.000000
vn 0.000000 -1.000000 0.000000
vn 0.000000 1.000000 0.000000
vn 0.000000 1.000000 0.000000
vn 0.000000 -1.000000 0.000000
vn 0.000000 -1.000000 0.000000
vn 0.000000 -1.000000 0.000000
vn 0.000000 -1.000000 0.000000
vn 1.000000 -0.000014 0.000000
vn 1.000000 -0.000014 0.000000
vn 1.000000 -0.000014 0.000000
vn 1.000000 -0.000014 0.000000
s 1
f 11/1/1 12/21/2 13/22/3 14/5/4
f 14/23/4 15/24/5 16/25/6 11/26/1
f 13/22/3 17/27/7 18/28/8 14/23/4
s off
f 19/29/9 12/21/10 11/26/11 20/30/12
s 2
f 3/11/13 8/14/14 9/13/15 10/12/16
f 8/14/14 3/11/13 2/16/17 1/15/18
f 9/13/15 8/14/14 7/18/19 6/17/20
s off
f 5/19/21 4/20/22 3/11/23 10/12/24
s 3
f 10/10/25 9/9/26 13/22/27 12/21/28
s off
f 8/5/29 1/6/30 15/24/31 14/23/32
f 1/6/33 2/7/34 16/25/35 15/24/36
f 2/7/37 3/1/38 11/26/39 16/25/40
s 3
f 9/9/26 6/3/41 17/27/42 13/22/27
s off
f 6/3/43 7/4/44 18/28/45 17/27/46
f 7/4/47 8/5/48 14/23/49 18/28/50
s 3
f 5/8/51 10/10/25 12/21/28 19/29/52
s off
f 3/1/53 4/2/54 20/30/55 11/26/56
f 4/2/57 5/8/58 19/29/59 20/30/60
