# This file uses centimeters as units for non-parametric coordinates.

v 3.460254 -0.000000 0.000000
v 3.460254 0.041486 0.000000
v 3.196517 0.041486 0.000000
v 3.196517 0.329917 0.000000
v 3.425682 0.329917 0.000000
v 3.425682 0.368440 0.000000
v 3.196517 0.368440 0.000000
v 3.196517 0.601556 0.000000
v 3.450376 0.601556 0.000000
v 3.450376 0.641068 0.000000
v 3.151079 0.641068 0.000000
v 3.151080 -0.000000 0.000000
v 3.151079 0.329917 0.000000
v 3.151079 0.368440 0.000000
v 3.196517 0.601556 0.025468
v 3.450376 0.601556 0.025468
v 3.450376 0.641068 0.025468
v 3.151079 0.641068 0.025468
v 3.460254 0.041486 0.025468
v 3.196517 0.041486 0.025468
v 3.151080 0.000000 0.025468
v 3.460254 0.000000 0.025468
v 3.196517 0.329917 0.025468
v 3.151079 0.329917 0.025468
v 3.196517 0.368440 0.025468
v 3.151079 0.368440 0.025468
v 3.425682 0.329917 0.025468
v 3.425682 0.368440 0.025468
vt 0.146963 0.064715
vt 0.193556 0.476069
vt 0.777423 0.514637
vt 0.777423 0.574729
vt 0.240148 0.574729
vt 0.146963 0.906683
vt 0.968050 0.938365
vt 0.968050 1.000000
vt 0.250000 0.968750
vt 0.000000 0.125000
vt 0.000000 0.437500
vt 0.146963 0.187500
vt 0.333333 0.064715
vt 0.333333 0.000000
vt 0.146963 0.687500
vt 0.000000 0.687500
vt 0.500000 0.938365
vt 0.500000 0.938365
vt 0.968050 0.938365
vt 0.968050 1.000000
vt 0.250000 0.968750
vt 0.333333 0.064715
vt 0.146963 0.064715
vt 0.000000 0.125000
vt 0.333333 0.000000
vt 0.146963 0.187500
vt 0.193556 0.476069
vt 0.000000 0.437500
vt 0.240148 0.574729
vt 0.000000 0.687500
vt 0.777423 0.514637
vt 0.777423 0.574729
vt 0.146963 0.687500
vt 0.146963 0.906683
vt 0.500000 0.938365
vt 0.968050 0.938365
vt 0.968050 1.000000
vt 0.250000 0.968750
vt 0.333333 0.064715
vt 0.146963 0.064715
vt 0.000000 0.125000
vt 0.333333 0.000000
vt 0.146963 0.187500
vt 0.193556 0.476069
vt 0.000000 0.437500
vt 0.000000 0.687500
vt 0.777423 0.514637
vt 0.777423 0.574729
vt 0.240148 0.574729
vt 0.146963 0.687500
vt 0.146963 0.906683
vn 0.000000 -0.000000 1.000000
vn 0.000000 0.000000 1.000000
vn 0.000000 0.000000 1.000000
vn 0.000000 -0.000000 1.000000
vn 0.000000 0.000000 1.000000
vn -0.000000 0.000000 1.000000
vn -0.000000 0.000000 1.000000
vn 0.000000 0.000000 1.000000
vn -0.000000 0.000000 1.000000
vn -0.000000 0.000000 1.000000
vn 0.000000 0.000000 1.000000
vn 0.000000 0.000000 1.000000
vn 0.000000 0.000000 1.000000
vn 0.000000 0.000000 1.000000
vn 0.000000 0.000000 -1.000000
vn 0.000000 0.000000 -1.000000
vn 0.000000 0.000000 -1.000000
vn 0.000000 0.000000 -1.000000
vn 0.000000 0.000000 -1.000000
vn 0.000000 0.000000 -1.000000
vn 0.000000 0.000000 -1.000000
vn 0.000000 0.000000 -1.000000
vn 0.000000 0.000000 -1.000000
vn 0.000000 0.000000 -1.000000
vn 0.000000 0.000000 -1.000000
vn 0.000000 0.000000 -1.000000
vn 0.000000 0.000000 -1.000000
vn 0.000000 0.000000 -1.000000
vn 0.000000 -1.000000 0.000000
vn 0.000000 -1.000000 0.000000
vn 0.000000 -1.000000 0.000000
vn 0.000000 -1.000000 0.000000
vn 1.000000 0.000000 0.000000
vn 1.000000 0.000000 0.000000
vn 1.000000 0.000000 0.000000
vn 1.000000 0.000000 0.000000
vn 0.000000 1.000000 0.000000
vn 0.000000 1.000000 0.000000
vn 0.000000 1.000000 0.000000
vn 0.000000 1.000000 0.000000
vn 0.000000 1.000000 0.000000
vn 0.000000 1.000000 0.000000
vn 0.000000 1.000000 0.000000
vn 0.000000 1.000000 0.000000
vn -0.000000 -1.000000 0.000000
vn -0.000000 -1.000000 0.000000
vn -0.000000 -1.000000 0.000000
vn -0.000000 -1.000000 0.000000
vn 1.000000 0.000000 0.000000
vn 1.000000 0.000000 0.000000
vn 1.000000 0.000000 0.000000
vn 1.000000 0.000000 0.000000
vn 1.000000 0.000000 0.000000
vn 1.000000 0.000000 0.000000
vn 1.000000 0.000000 0.000000
vn 1.000000 0.000000 0.000000
vn -1.000000 0.000000 0.000000
vn -1.000000 0.000000 0.000000
vn -1.000000 0.000000 0.000000
vn -1.000000 0.000000 0.000000
vn -1.000000 0.000000 0.000000
vn -1.000000 0.000000 0.000000
vn 0.000000 -1.000000 0.000000
vn 0.000000 -1.000000 0.000000
vn 0.000000 -1.000000 0.000000
vn 0.000000 -1.000000 0.000000
vn 1.000000 0.000000 0.000000
vn 1.000000 0.000000 0.000000
vn 1.000000 0.000000 0.000000
vn 1.000000 0.000000 0.000000
vn 0.000000 1.000000 0.000000
vn 0.000000 1.000000 0.000000
vn 0.000000 1.000000 0.000000
vn 0.000000 1.000000 0.000000
vn 1.000000 0.000000 0.000000
vn 1.000000 0.000000 0.000000
vn 1.000000 0.000000 0.000000
vn 1.000000 0.000000 0.000000
vn -1.000000 0.000000 0.000000
vn -1.000000 0.000000 0.000000
s 1
f 15/35/1 16/36/2 17/37/3 18/38/4
f 19/39/5 20/40/6 21/41/7 22/42/8
f 20/43/6 23/44/9 24/45/10 21/41/7
f 23/44/9 25/5/11 26/46/12 24/45/10
f 23/44/9 27/47/13 28/48/14 25/49/11
f 25/50/11 15/51/1 18/38/4 26/46/12
s 3
f 8/18/15 11/21/16 10/20/17 9/19/18
f 2/22/19 1/25/20 12/24/21 3/23/22
f 3/26/22 12/24/21 13/28/23 4/27/24
f 4/27/24 13/28/23 14/30/25 7/29/26
f 4/27/24 7/29/26 6/32/27 5/31/28
f 7/33/26 14/30/25 11/21/16 8/34/15
s off
f 8/17/29 9/7/30 16/36/31 15/35/32
f 9/7/33 10/8/34 17/37/35 16/36/36
f 10/8/37 11/9/38 18/38/39 17/37/40
f 2/13/41 3/1/42 20/40/43 19/39/44
f 12/10/45 1/14/46 22/42/47 21/41/48
f 1/14/49 2/13/50 19/39/51 22/42/52
f 3/12/53 4/2/54 23/44/55 20/43/56
s 5
f 13/11/57 12/10/58 21/41/59 24/45/60
f 14/16/61 13/11/57 24/45/60 26/46/62
s off
f 4/2/63 5/3/64 27/47/65 23/44/66
f 5/3/67 6/4/68 28/48/69 27/47/70
f 6/4/71 7/5/72 25/49/73 28/48/74
f 7/15/75 8/6/76 15/51/77 25/50/78
s 5
f 11/9/79 14/16/61 26/46/62 18/38/80
