# This file uses centimeters as units for non-parametric coordinates.

v 1.363548 0.222099 0.000000
v 1.455927 0.000000 0.000000
v 1.506302 0.000000 0.000000
v 1.235653 0.645019 0.000000
v 1.208982 0.645019 0.000000
v 0.940306 0.000000 0.000000
v 0.986732 0.000000 0.000000
v 1.078487 0.222793 0.000000
v 1.347271 0.260773 0.000000
v 1.094399 0.260773 0.000000
v 1.219848 0.571924 0.000000
v 1.043746 0.248320 0.000000
v 1.398655 0.256246 0.000000
v 1.043746 0.248320 0.025468
v 0.940306 0.000000 0.025468
v 0.986732 0.000000 0.025468
v 1.078487 0.222793 0.025468
v 1.363548 0.222099 0.025468
v 1.455927 0.000000 0.025468
v 1.506302 0.000000 0.025468
v 1.398655 0.256246 0.025468
v 1.094399 0.260773 0.025468
v 1.347271 0.260773 0.025468
v 1.219848 0.571924 0.025468
v 1.235653 0.645019 0.025468
v 1.208982 0.645019 0.025468
vt 0.674811 0.341756
vt 0.910997 0.000000
vt 1.000000 0.000000
vt 0.521818 1.000000
vt 0.474697 1.000000
vt 0.039558 0.083333
vt 0.121280 0.083333
vt 0.310421 0.319633
vt 0.659512 0.404288
vt 0.336126 0.404288
vt 0.505506 0.860005
vt 0.636111 0.581621
vt 0.189558 0.377327
vt 0.810549 0.244379
vt 0.853636 0.306084
vt 0.189558 0.377327
vt 0.039558 0.083333
vt 0.121280 0.083333
vt 0.310421 0.319633
vt 0.810549 0.244379
vt 0.910997 0.000000
vt 1.000000 0.000000
vt 0.853636 0.306084
vt 0.336126 0.404288
vt 0.674811 0.341756
vt 0.659512 0.404288
vt 0.636111 0.581621
vt 0.521818 1.000000
vt 0.505506 0.860005
vt 0.474697 1.000000
vt 0.189558 0.377327
vt 0.039558 0.083333
vt 0.121280 0.083333
vt 0.310421 0.319633
vt 0.810549 0.244379
vt 0.910997 0.000000
vt 1.000000 0.000000
vt 0.853636 0.306084
vt 0.674811 0.341756
vt 0.659512 0.404288
vt 0.336126 0.404288
vt 0.636111 0.581621
vt 0.521818 1.000000
vt 0.474697 1.000000
vt 0.505506 0.860005
vn 0.000000 -0.000000 1.000000
vn 0.000000 0.000000 1.000000
vn 0.000000 0.000000 1.000000
vn 0.000000 -0.000000 1.000000
vn -0.000000 0.000000 1.000000
vn -0.000000 0.000000 1.000000
vn -0.000000 0.000000 1.000000
vn -0.000000 0.000000 1.000000
vn -0.000000 -0.000000 1.000000
vn -0.000000 0.000000 1.000000
vn -0.000000 -0.000000 1.000000
vn -0.000000 -0.000000 1.000000
vn -0.000000 -0.000000 1.000000
vn -0.000000 -0.000000 1.000000
vn 0.000000 0.000000 1.000000
vn 0.000000 0.000000 1.000000
vn 0.000000 0.000000 1.000000
vn -0.000000 0.000000 1.000000
vn -0.000000 0.000000 1.000000
vn -0.000000 0.000000 1.000000
vn -0.000000 0.000000 1.000000
vn 0.000000 0.000000 -1.000000
vn 0.000000 0.000000 -1.000000
vn 0.000000 0.000000 -1.000000
vn 0.000000 0.000000 -1.000000
vn 0.000000 0.000000 -1.000000
vn 0.000000 0.000000 -1.000000
vn 0.000000 0.000000 -1.000000
vn 0.000000 0.000000 -1.000000
vn 0.000000 0.000000 -1.000000
vn 0.000000 0.000000 -1.000000
vn 0.000000 0.000000 -1.000000
vn 0.000000 0.000000 -1.000000
vn 0.000000 0.000000 -1.000000
vn 0.000000 0.000000 -1.000000
vn 0.000000 0.000000 -1.000000
vn 0.000000 0.000000 -1.000000
vn 0.000000 0.000000 -1.000000
vn 0.000000 0.000000 -1.000000
vn 0.000000 0.000000 -1.000000
vn 0.000000 0.000000 -1.000000
vn 0.000000 0.000000 -1.000000
vn -0.923118 0.384517 0.000000
vn -0.923112 0.384530 0.000000
vn -0.923112 0.384530 0.000000
vn -0.923118 0.384517 0.000000
vn 0.000000 -1.000000 0.000000
vn 0.000000 -1.000000 0.000000
vn 0.000000 -1.000000 0.000000
vn 0.000000 -1.000000 0.000000
vn 0.924654 -0.380808 0.000000
vn 0.924654 -0.380808 0.000000
vn 0.924654 -0.380808 0.000000
vn 0.924654 -0.380808 0.000000
vn -0.923316 -0.384041 0.000000
vn -0.923316 -0.384041 0.000000
vn -0.923316 -0.384041 0.000000
vn -0.923316 -0.384041 0.000000
vn 0.000000 -1.000000 0.000000
vn 0.000000 -1.000000 0.000000
vn 0.000000 -1.000000 0.000000
vn 0.000000 -1.000000 0.000000
vn 0.921952 0.387305 0.000000
vn 0.922114 0.386918 0.000000
vn 0.922114 0.386918 0.000000
vn 0.921952 0.387305 0.000000
vn -0.002435 -0.999997 0.000000
vn -0.002435 -0.999997 0.000000
vn -0.002435 -0.999997 0.000000
vn -0.002435 -0.999997 0.000000
vn 0.000000 1.000000 0.000000
vn 0.000000 1.000000 0.000000
vn 0.000000 1.000000 0.000000
vn 0.000000 1.000000 0.000000
vn -0.925407 -0.378975 0.000000
vn -0.925407 -0.378975 0.000000
vn -0.925407 -0.378975 0.000000
vn -0.925407 -0.378975 0.000000
vn 0.922221 0.386663 0.000000
vn 0.922221 0.386663 0.000000
vn 0.000000 1.000000 0.000000
vn 0.000000 1.000000 0.000000
vn 0.000000 1.000000 0.000000
vn 0.000000 1.000000 0.000000
vn -0.923122 0.384508 0.000000
vn -0.923122 0.384508 0.000000
vn 0.927457 -0.373929 0.000000
vn 0.927457 -0.373929 0.000000
vn 0.927457 -0.373929 0.000000
vn 0.927457 -0.373929 0.000000
s 1
f 14/31/1 15/32/2 16/33/3 17/34/4
f 18/35/5 19/36/6 20/37/7 21/38/8
f 22/41/9 17/34/4 18/39/5 23/40/10
s off
f 24/42/11 23/40/12 21/38/13 25/43/14
f 24/11/15 25/43/16 26/44/17
s 1
f 22/41/9 14/31/1 17/34/4
f 18/39/5 21/38/8 23/40/10
s off
f 26/44/18 14/31/19 22/41/20 24/45/21
s 3
f 12/16/22 8/19/23 7/18/24 6/17/25
f 1/20/26 13/23/27 3/22/28 2/21/29
f 10/24/30 9/26/31 1/25/26 8/19/23
s off
f 11/27/32 4/28/33 13/23/34 9/26/35
f 11/29/36 5/30/37 4/28/38
s 3
f 10/24/30 8/19/23 12/16/22
f 1/25/26 9/26/31 13/23/27
s off
f 5/30/39 11/29/40 10/24/41 12/16/42
s 5
f 12/13/43 6/6/44 15/32/45 14/31/46
s off
f 6/6/47 7/7/48 16/33/49 15/32/50
f 7/7/51 8/8/52 17/34/53 16/33/54
f 1/14/55 2/2/56 19/36/57 18/35/58
f 2/2/59 3/3/60 20/37/61 19/36/62
s 6
f 3/3/63 13/15/64 21/38/65 20/37/66
s off
f 8/8/67 1/1/68 18/39/69 17/34/70
f 9/9/71 10/10/72 22/41/73 23/40/74
f 11/12/75 9/9/76 23/40/77 24/42/78
s 6
f 13/15/64 4/4/79 25/43/80 21/38/65
s off
f 4/4/81 5/5/82 26/44/83 25/43/84
s 5
f 5/5/85 12/13/43 14/31/46 26/44/86
s off
f 10/10/87 11/11/88 24/45/89 22/41/90
